<?xml version="1.0" encoding="utf-8"?>
<!-- Generator: Adobe Illustrator 23.0.1, SVG Export Plug-In . SVG Version: 6.00 Build 0)  -->
<svg version="1.1" id="Layer_1" xmlns="http://www.w3.org/2000/svg" xmlns:xlink="http://www.w3.org/1999/xlink" x="0px" y="0px"
	 viewBox="0 0 316.4 58.6" style="enable-background:new 0 0 316.4 58.6;" xml:space="preserve">
<style type="text/css">
	.st0{fill:#FFFFFF;}
</style>
<g>
	<path class="st0" d="M38.2,32.1c-1.3-1.8-3-3.1-5.2-4c1.3-0.8,2.4-1.8,3.2-3c1.4-2,2.1-4.5,2.1-7.5c0-2.4-0.6-4.7-1.7-6.9
		c-1.1-2.2-2.8-4.1-5.1-5.5C29.2,3.8,26.3,3,22.7,3H7.9C4.4,3,1.6,5.9,1.6,9.4v40.5c0,3.5,2.8,6.3,6.3,6.3h16.9c3.5,0,6.4-0.7,8.8-2
		c2.4-1.3,4.2-3.2,5.4-5.5c1.2-2.4,1.8-5.1,1.8-8.3C40.8,37.3,39.9,34.6,38.2,32.1z M10.6,13.1c0-1,0.8-1.7,1.7-1.7h10.2
		c2.1,0,3.8,0.6,4.9,1.8c1.2,1.2,1.8,2.8,1.8,4.6c0,1.4-0.3,2.6-0.9,3.5c-0.6,1-1.4,1.7-2.4,2.2c-1,0.5-2.2,0.7-3.4,0.7H12.3
		c-1,0-1.7-0.8-1.7-1.7V13.1z M30.8,44.2c-0.7,1.1-1.7,2-2.9,2.7c-1.2,0.6-2.6,0.9-4.2,0.9H12.3c-1,0-1.7-0.8-1.7-1.7V34.3
		c0-1,0.8-1.7,1.7-1.7H24c1.6,0,3.1,0.3,4.2,1c1.2,0.7,2.1,1.6,2.7,2.7c0.6,1.1,0.9,2.4,0.9,3.8C31.8,41.7,31.5,43,30.8,44.2z"/>
	<path class="st0" d="M48.9,6.8V5.6c0-1.9,1.6-3.5,3.5-3.5h1.9c1.9,0,3.5,1.6,3.5,3.5v1.2c0,1.9-1.6,3.5-3.5,3.5h-1.9
		C50.5,10.3,48.9,8.7,48.9,6.8z M48.9,52.7V19.8c0-1.9,1.6-3.5,3.5-3.5h1.9c1.9,0,3.5,1.6,3.5,3.5v32.9c0,1.9-1.6,3.5-3.5,3.5h-1.9
		C50.5,56.2,48.9,54.6,48.9,52.7z"/>
	<path class="st0" d="M64.4,19.8L64.4,19.8c0-1.9,1.6-3.5,3.5-3.5h20.8c1.9,0,3.5,1.6,3.5,3.5v0c0,1.9-1.6,3.5-3.5,3.5H67.9
		C66,23.3,64.4,21.7,64.4,19.8z M92.2,53.1c0,1.8-1.3,3.3-3.1,3.5c-1.6,0.2-3.1,0.2-4.6,0.2c-2.5-0.1-4.8-0.5-6.8-1.4
		c-2-0.9-3.5-2.3-4.5-4.1c-0.9-1.7-1.4-3.5-1.4-5.3c0-1.8-0.1-3.8-0.1-6.1V8.7c0-1.9,1.6-3.5,3.5-3.5H77c1.9,0,3.5,1.6,3.5,3.5v30.6
		c0,1.6,0,3,0.1,4.2c0,1.2,0.3,2.2,0.8,3c0.9,1.5,2.3,2.3,4.2,2.5c0.9,0.1,1.9,0.1,3,0.1c2-0.1,3.6,1.5,3.6,3.5V53.1z"/>
	<path class="st0" d="M123.3,57.3c-5.3,0-9.9-1.2-13.6-3.5c-3.8-2.3-6.7-5.6-8.7-9.7s-3-9-3-14.5c0-5.5,1-10.3,3-14.5
		s4.9-7.4,8.7-9.7c3.8-2.3,8.3-3.5,13.6-3.5c5.3,0,9.9,1.2,13.7,3.5c3.8,2.3,6.7,5.6,8.7,9.7c2,4.2,3,9,3,14.5c0,5.5-1,10.3-3,14.5
		c-2,4.2-4.9,7.4-8.7,9.7C133.1,56.1,128.6,57.3,123.3,57.3z M123.3,48.9c3.6,0,6.5-0.8,8.9-2.4c2.4-1.6,4.2-3.8,5.3-6.8
		c1.2-2.9,1.8-6.3,1.8-10.2s-0.6-7.3-1.8-10.1c-1.2-2.9-3-5.1-5.3-6.7c-2.4-1.6-5.3-2.4-8.9-2.5c-3.6,0-6.5,0.8-8.9,2.4
		c-2.4,1.6-4.1,3.8-5.3,6.8c-1.2,2.9-1.8,6.3-1.8,10.2s0.6,7.3,1.8,10.1c1.2,2.9,3,5.1,5.3,6.7C116.7,48,119.7,48.8,123.3,48.9z"/>
	<path class="st0" d="M156.1,52.7V19.8c0-1.9,1.6-3.5,3.5-3.5h0.9c1.9,0,3.5,1.6,3.5,3.5V26l-1-1.3c0.5-1.3,1.1-2.5,2-3.6
		c0.8-1.1,1.8-2,3-2.7c1-0.7,2.1-1.2,3.3-1.6c1.2-0.4,2.4-0.6,3.7-0.7c0,0,0,0,0.1,0c2-0.1,3.6,1.5,3.6,3.5v1.1
		c0,1.9-1.5,3.4-3.3,3.5c-0.2,0-0.5,0-0.7,0c-1.5,0.1-2.9,0.6-4.1,1.3c-1.2,0.7-2.2,1.5-3,2.5c-0.8,1-1.3,2.2-1.7,3.5
		c-0.4,1.3-0.6,2.7-0.6,4.3v16.8c0,1.9-1.6,3.5-3.5,3.5h-2C157.7,56.2,156.1,54.6,156.1,52.7z"/>
	<path class="st0" d="M185.5,52.7V6.5c0-1.9,1.6-3.5,3.5-3.5h2c1.9,0,3.5,1.6,3.5,3.5v21.7h-1.1v24.5c0,1.9-1.6,3.5-3.5,3.5H189
		C187,56.2,185.5,54.6,185.5,52.7z M204.7,57.3c-3.9,0-7.1-0.9-9.8-2.8c-2.6-1.8-4.6-4.4-5.9-7.5c-1.3-3.2-2-6.8-2-10.7
		c0-4,0.7-7.6,2-10.8c1.3-3.2,3.3-5.7,5.8-7.5c2.6-1.8,5.7-2.7,9.5-2.7c3.8,0,7,0.9,9.8,2.7c2.8,1.8,4.9,4.3,6.4,7.5
		c1.5,3.2,2.3,6.8,2.3,10.8c0,4-0.8,7.6-2.3,10.7c-1.5,3.2-3.6,5.7-6.3,7.5C211.5,56.3,208.4,57.3,204.7,57.3z M203.3,49.3
		c2.3,0,4.2-0.6,5.7-1.7c1.5-1.2,2.6-2.7,3.3-4.7c0.7-2,1.1-4.2,1.1-6.6c0-2.4-0.4-4.6-1.1-6.6c-0.7-2-1.9-3.6-3.4-4.7
		c-1.6-1.2-3.5-1.8-5.9-1.8c-2.3,0-4.1,0.5-5.5,1.6c-1.4,1.1-2.5,2.6-3.2,4.6c-0.7,2-1,4.2-1,6.8c0,2.6,0.3,4.9,1,6.8
		c0.7,2,1.7,3.5,3.2,4.6C199,48.8,200.9,49.3,203.3,49.3z"/>
	<path class="st0" d="M231.7,6.8V5.6c0-1.9,1.6-3.5,3.5-3.5h1.9c1.9,0,3.5,1.6,3.5,3.5v1.2c0,1.9-1.6,3.5-3.5,3.5h-1.9
		C233.3,10.3,231.7,8.7,231.7,6.8z M231.7,52.7V19.8c0-1.9,1.6-3.5,3.5-3.5h1.9c1.9,0,3.5,1.6,3.5,3.5v32.9c0,1.9-1.6,3.5-3.5,3.5
		h-1.9C233.3,56.2,231.7,54.6,231.7,52.7z"/>
	<path class="st0" d="M247.3,19.8L247.3,19.8c0-1.9,1.6-3.5,3.5-3.5h20.8c1.9,0,3.5,1.6,3.5,3.5v0c0,1.9-1.6,3.5-3.5,3.5h-20.8
		C248.8,23.3,247.3,21.7,247.3,19.8z M275,53.1c0,1.8-1.3,3.3-3.1,3.5c-1.6,0.2-3.1,0.2-4.6,0.2c-2.5-0.1-4.8-0.5-6.8-1.4
		c-2-0.9-3.5-2.3-4.5-4.1c-0.9-1.7-1.4-3.5-1.4-5.3c0-1.8-0.1-3.8-0.1-6.1V8.7c0-1.9,1.6-3.5,3.5-3.5h1.9c1.9,0,3.5,1.6,3.5,3.5
		v30.6c0,1.6,0,3,0.1,4.2c0,1.2,0.3,2.2,0.8,3c0.9,1.5,2.3,2.3,4.2,2.5c0.9,0.1,1.9,0.1,3,0.1c2-0.1,3.6,1.5,3.6,3.5V53.1z"/>
	<path class="st0" d="M299,57.3c-4.9,0-8.9-1.1-12-3.3c-1.9-1.3-3.3-3-4.2-5c-1-2.1,0.3-4.6,2.6-5l2.4-0.4c1.4-0.2,2.8,0.5,3.5,1.7
		c0.6,1,1.3,1.8,2.3,2.5c1.6,1.1,3.6,1.7,6.1,1.7c2.1,0,3.8-0.4,5-1.3s1.8-2,1.8-3.5c0-0.9-0.2-1.6-0.6-2.2
		c-0.4-0.6-1.4-1.1-2.8-1.6c-1.5-0.5-3.7-1.2-6.7-2c-3.3-0.9-6-1.8-8-2.9c-2-1-3.4-2.2-4.2-3.6c-0.9-1.4-1.3-3.1-1.3-5.1
		c0-2.5,0.7-4.6,2-6.5c1.3-1.8,3.1-3.3,5.5-4.3c2.3-1,5.1-1.5,8.3-1.5c3.1,0,5.8,0.5,8.2,1.4s4.3,2.3,5.8,4.1c0.5,0.6,1,1.3,1.3,2
		c1.1,2-0.2,4.6-2.5,5l-2.4,0.4c-1.4,0.3-2.8-0.5-3.5-1.8c-0.4-0.7-0.9-1.3-1.6-1.7c-1.3-1-3.1-1.5-5.3-1.7
		c-2.1-0.1-3.8,0.2-5.1,0.9c-1.3,0.8-1.9,1.8-1.9,3.2c0,0.8,0.3,1.4,0.8,2c0.5,0.5,1.6,1.1,3.1,1.6c1.6,0.5,3.9,1.2,7,2
		c3.2,0.8,5.7,1.7,7.6,2.8c1.9,1,3.3,2.3,4.1,3.7c0.8,1.5,1.3,3.2,1.3,5.3c0,4-1.5,7.2-4.4,9.4C308.2,56.1,304.2,57.3,299,57.3z"/>
</g>
</svg>
