<?xml version="1.0" encoding="utf-8"?>
<!-- Generator: Adobe Illustrator 23.0.1, SVG Export Plug-In . SVG Version: 6.00 Build 0)  -->
<svg version="1.1" id="Layer_1" xmlns="http://www.w3.org/2000/svg" xmlns:xlink="http://www.w3.org/1999/xlink" x="0px" y="0px"
	 viewBox="0 0 420.2 80" style="enable-background:new 0 0 420.2 80;" xml:space="preserve">
<style type="text/css">
	.st0{fill:url(#SVGID_1_);}
	.st1{fill:#DBDBDB;}
	.st2{fill:#FFFFFF;}
</style>
<g>
	
		<radialGradient id="SVGID_1_" cx="-58.3236" cy="285.1606" r="1" gradientTransform="matrix(35.791 0 0 -35.791 2135.5369 10229.5947)" gradientUnits="userSpaceOnUse">
		<stop  offset="0" style="stop-color:#E1E1E1"/>
		<stop  offset="0.3588" style="stop-color:#E7E7E7"/>
		<stop  offset="0.8259" style="stop-color:#F7F7F7"/>
		<stop  offset="1" style="stop-color:#FFFFFF"/>
	</radialGradient>
	<path class="st0" d="M63,30.8H39.6c-2.2,0-3.4-2.4-2.2-4.2c5.1-7.3,10.1-14.5,15.2-21.8c1.4-2,0-4.8-2.5-4.8c-7.5,0-15,0-22.5,0
		c-3.3,0-6.4,1.6-8.3,4.3C13.8,12.2,8.3,20.1,2.7,28C1,30.6,0,33.6,0,36.8C0,50,0,63.2,0,76.4c0,1.2,1.5,1.6,2.2,0.7
		c10-14.3,19.9-28.6,29.9-42.9c1-1.4,3.1-1.4,4.1,0c3.2,4.4,6.4,8.8,9.6,13.2c0.9,1.3,0.9,3,0,4.3C40,60,34.3,68.3,28.5,76.7
		c-1,1.4,0,3.4,1.8,3.4c7.5,0,15,0,22.5,0c4.1,0,7.9-2,10.2-5.3c5-7.1,9.9-14.3,14.9-21.4c1.9-2.7,1.8-6.3-0.1-9
		c-2.3-3.1-4.6-6.3-6.9-9.4C69,32.3,66.1,30.8,63,30.8z"/>
	<path class="st1" d="M76.4,55.3H59.1c-1.3,0-2.4,0.6-3.1,1.7c-5.2,7.7-10.4,15.4-15.6,23c4.1,0,8.2,0,12.4,0s8-2,10.4-5.5
		L76.4,55.3z"/>
	<g>
		<path class="st2" d="M141.4,53.8c-1.3-1.8-3-3.1-5.2-4c1.3-0.8,2.4-1.8,3.2-3c1.4-2,2.1-4.5,2.1-7.5c0-2.4-0.6-4.7-1.7-6.9
			c-1.1-2.2-2.8-4.1-5.1-5.5c-2.3-1.4-5.2-2.2-8.8-2.2h-14.8c-3.5,0-6.3,2.8-6.3,6.3v40.5c0,3.5,2.8,6.3,6.3,6.3H128
			c3.5,0,6.4-0.7,8.8-2c2.4-1.3,4.2-3.2,5.4-5.5c1.2-2.4,1.8-5.1,1.8-8.3C144,58.9,143.1,56.2,141.4,53.8z M113.8,34.7
			c0-1,0.8-1.7,1.7-1.7h10.2c2.1,0,3.8,0.6,4.9,1.8c1.2,1.2,1.8,2.8,1.8,4.6c0,1.4-0.3,2.6-0.9,3.5c-0.6,1-1.4,1.7-2.4,2.2
			c-1,0.5-2.2,0.7-3.4,0.7h-10.2c-1,0-1.7-0.8-1.7-1.7V34.7z M134,65.8c-0.7,1.1-1.7,2-2.9,2.7c-1.2,0.6-2.6,0.9-4.2,0.9h-11.4
			c-1,0-1.7-0.8-1.7-1.7V55.9c0-1,0.8-1.7,1.7-1.7h11.6c1.6,0,3.1,0.3,4.2,1c1.2,0.7,2.1,1.6,2.7,2.7c0.6,1.1,0.9,2.4,0.9,3.8
			C135,63.3,134.7,64.7,134,65.8z"/>
		<path class="st2" d="M152.1,28.4v-1.2c0-1.9,1.6-3.5,3.5-3.5h1.9c1.9,0,3.5,1.6,3.5,3.5v1.2c0,1.9-1.6,3.5-3.5,3.5h-1.9
			C153.7,31.9,152.1,30.3,152.1,28.4z M152.1,74.3V41.4c0-1.9,1.6-3.5,3.5-3.5h1.9c1.9,0,3.5,1.6,3.5,3.5v32.9
			c0,1.9-1.6,3.5-3.5,3.5h-1.9C153.7,77.8,152.1,76.2,152.1,74.3z"/>
		<path class="st2" d="M167.6,41.4L167.6,41.4c0-1.9,1.6-3.5,3.5-3.5h20.8c1.9,0,3.5,1.6,3.5,3.5v0c0,1.9-1.6,3.5-3.5,3.5h-20.8
			C169.2,44.9,167.6,43.4,167.6,41.4z M195.4,74.8c0,1.8-1.3,3.3-3.1,3.5c-1.6,0.2-3.1,0.2-4.6,0.2c-2.5-0.1-4.8-0.5-6.8-1.4
			c-2-0.9-3.5-2.3-4.5-4.1c-0.9-1.7-1.4-3.5-1.4-5.3c0-1.8-0.1-3.8-0.1-6.1V30.4c0-1.9,1.6-3.5,3.5-3.5h1.9c1.9,0,3.5,1.6,3.5,3.5
			V61c0,1.6,0,3,0.1,4.2c0,1.2,0.3,2.2,0.8,3c0.9,1.5,2.3,2.3,4.2,2.5c0.9,0.1,1.9,0.1,3,0.1c2-0.1,3.6,1.5,3.6,3.5V74.8z"/>
		<path class="st2" d="M226.5,78.9c-5.3,0-9.9-1.2-13.6-3.5c-3.8-2.3-6.7-5.6-8.7-9.7s-3-9-3-14.5c0-5.5,1-10.3,3-14.5
			s4.9-7.4,8.7-9.7c3.8-2.3,8.3-3.5,13.6-3.5s9.9,1.2,13.7,3.5c3.8,2.3,6.7,5.6,8.7,9.7s3,9,3,14.5c0,5.5-1,10.3-3,14.5
			s-4.9,7.4-8.7,9.7C236.3,77.7,231.8,78.9,226.5,78.9z M226.5,70.5c3.6,0,6.5-0.8,8.9-2.4c2.4-1.6,4.2-3.8,5.3-6.8
			c1.2-2.9,1.8-6.3,1.8-10.2s-0.6-7.3-1.8-10.1c-1.2-2.9-3-5.1-5.3-6.7c-2.4-1.6-5.3-2.4-8.9-2.5c-3.6,0-6.5,0.8-8.9,2.4
			c-2.4,1.6-4.1,3.8-5.3,6.8c-1.2,2.9-1.8,6.3-1.8,10.2s0.6,7.3,1.8,10.1c1.2,2.9,3,5.1,5.3,6.7C219.9,69.7,222.9,70.5,226.5,70.5z"
			/>
		<path class="st2" d="M259.3,74.3V41.4c0-1.9,1.6-3.5,3.5-3.5h0.9c1.9,0,3.5,1.6,3.5,3.5v6.2l-1-1.3c0.5-1.3,1.1-2.5,2-3.6
			c0.8-1.1,1.8-2,3-2.7c1-0.7,2.1-1.2,3.3-1.6c1.2-0.4,2.4-0.6,3.7-0.7c0,0,0,0,0.1,0c2-0.1,3.6,1.5,3.6,3.5v1.1
			c0,1.9-1.5,3.4-3.3,3.5c-0.2,0-0.5,0-0.7,0c-1.5,0.1-2.9,0.6-4.1,1.3c-1.2,0.7-2.2,1.5-3,2.5c-0.8,1-1.3,2.2-1.7,3.5
			s-0.6,2.7-0.6,4.3v16.8c0,1.9-1.6,3.5-3.5,3.5h-2C260.9,77.8,259.3,76.2,259.3,74.3z"/>
		<path class="st2" d="M288.7,74.3V28.2c0-1.9,1.6-3.5,3.5-3.5h2c1.9,0,3.5,1.6,3.5,3.5v21.7h-1.1v24.5c0,1.9-1.6,3.5-3.5,3.5h-0.9
			C290.2,77.8,288.7,76.2,288.7,74.3z M307.9,78.9c-3.9,0-7.1-0.9-9.8-2.8c-2.6-1.8-4.6-4.4-5.9-7.5c-1.3-3.2-2-6.8-2-10.7
			c0-4,0.7-7.6,2-10.8c1.3-3.2,3.3-5.7,5.8-7.5c2.6-1.8,5.7-2.7,9.5-2.7c3.8,0,7,0.9,9.8,2.7c2.8,1.8,4.9,4.3,6.4,7.5
			c1.5,3.2,2.3,6.8,2.3,10.8c0,4-0.8,7.6-2.3,10.7c-1.5,3.2-3.6,5.7-6.3,7.5C314.7,78,311.5,78.9,307.9,78.9z M306.5,70.9
			c2.3,0,4.2-0.6,5.7-1.7c1.5-1.2,2.6-2.7,3.3-4.7c0.7-2,1.1-4.2,1.1-6.6c0-2.4-0.4-4.6-1.1-6.6c-0.7-2-1.9-3.6-3.4-4.7
			c-1.6-1.2-3.5-1.8-5.9-1.8c-2.3,0-4.1,0.5-5.5,1.6c-1.4,1.1-2.5,2.6-3.2,4.6c-0.7,2-1,4.2-1,6.8c0,2.6,0.3,4.9,1,6.8
			c0.7,2,1.7,3.5,3.2,4.6C302.2,70.4,304.1,70.9,306.5,70.9z"/>
		<path class="st2" d="M334.9,28.4v-1.2c0-1.9,1.6-3.5,3.5-3.5h1.9c1.9,0,3.5,1.6,3.5,3.5v1.2c0,1.9-1.6,3.5-3.5,3.5h-1.9
			C336.5,31.9,334.9,30.3,334.9,28.4z M334.9,74.3V41.4c0-1.9,1.6-3.5,3.5-3.5h1.9c1.9,0,3.5,1.6,3.5,3.5v32.9
			c0,1.9-1.6,3.5-3.5,3.5h-1.9C336.5,77.8,334.9,76.2,334.9,74.3z"/>
		<path class="st2" d="M350.4,41.4L350.4,41.4c0-1.9,1.6-3.5,3.5-3.5h20.8c1.9,0,3.5,1.6,3.5,3.5v0c0,1.9-1.6,3.5-3.5,3.5h-20.8
			C352,44.9,350.4,43.4,350.4,41.4z M378.2,74.8c0,1.8-1.3,3.3-3.1,3.5c-1.6,0.2-3.1,0.2-4.6,0.2c-2.5-0.1-4.8-0.5-6.8-1.4
			c-2-0.9-3.5-2.3-4.5-4.1c-0.9-1.7-1.4-3.5-1.4-5.3c0-1.8-0.1-3.8-0.1-6.1V30.4c0-1.9,1.6-3.5,3.5-3.5h1.9c1.9,0,3.5,1.6,3.5,3.5
			V61c0,1.6,0,3,0.1,4.2c0,1.2,0.3,2.2,0.8,3c0.9,1.5,2.3,2.3,4.2,2.5c0.9,0.1,1.9,0.1,3,0.1c2-0.1,3.6,1.5,3.6,3.5V74.8z"/>
		<path class="st2" d="M402.2,78.9c-4.9,0-8.9-1.1-12-3.3c-1.9-1.3-3.3-3-4.2-5c-1-2.1,0.3-4.6,2.6-5l2.4-0.4
			c1.4-0.2,2.8,0.5,3.5,1.7c0.6,1,1.3,1.8,2.3,2.5c1.6,1.1,3.6,1.7,6.1,1.7c2.1,0,3.8-0.4,5-1.3s1.8-2,1.8-3.5
			c0-0.9-0.2-1.6-0.6-2.2c-0.4-0.6-1.4-1.1-2.8-1.6c-1.5-0.5-3.7-1.2-6.7-2c-3.3-0.9-6-1.8-8-2.9c-2-1-3.4-2.2-4.2-3.6
			c-0.9-1.4-1.3-3.1-1.3-5.1c0-2.5,0.7-4.6,2-6.5c1.3-1.8,3.1-3.3,5.5-4.3c2.3-1,5.1-1.5,8.3-1.5c3.1,0,5.8,0.5,8.2,1.4
			s4.3,2.3,5.8,4.1c0.5,0.6,1,1.3,1.3,2c1.1,2-0.2,4.6-2.5,5l-2.4,0.4c-1.4,0.3-2.8-0.5-3.5-1.8c-0.4-0.7-0.9-1.3-1.6-1.7
			c-1.3-1-3.1-1.5-5.3-1.7c-2.1-0.1-3.8,0.2-5.1,0.9c-1.3,0.8-1.9,1.8-1.9,3.2c0,0.8,0.3,1.4,0.8,2c0.5,0.5,1.6,1.1,3.1,1.6
			s3.9,1.2,7,2c3.2,0.8,5.7,1.7,7.6,2.8c1.9,1,3.3,2.3,4.1,3.7c0.8,1.5,1.3,3.2,1.3,5.3c0,4-1.5,7.2-4.4,9.4
			C411.4,77.8,407.3,78.9,402.2,78.9z"/>
	</g>
</g>
</svg>
